<svg width="7" height="14" viewBox="0 0 7 14" fill="none" xmlns="http://www.w3.org/2000/svg">
<path d="M4.62652 6.10322C4.71527 6.19342 4.78572 6.30074 4.83379 6.41898C4.88187 6.53722 4.90662 6.66404 4.90662 6.79213C4.90662 6.92022 4.88187 7.04705 4.83379 7.16529C4.78572 7.28352 4.71527 7.39084 4.62652 7.48104L0.280127 11.925C0.191373 12.0152 0.120927 12.1225 0.0728526 12.2407C0.0247784 12.359 2.76566e-05 12.4858 2.76566e-05 12.6139C2.76566e-05 12.742 0.0247784 12.8688 0.0728526 12.9871C0.120927 13.1053 0.191373 13.2126 0.280127 13.3028C0.457545 13.4835 0.697546 13.585 0.947711 13.585C1.19788 13.585 1.43787 13.4835 1.61529 13.3028L5.96169 8.84916C6.49367 8.30336 6.79248 7.56352 6.79248 6.79213C6.79248 6.02075 6.49367 5.2809 5.96169 4.73511L1.61529 0.281459C1.43892 0.102202 1.20086 0.00114346 0.952445 7.15256e-05C0.827823 -0.000666618 0.704284 0.0238094 0.588913 0.0720959C0.473542 0.120382 0.368608 0.19153 0.280127 0.281459C0.191373 0.37166 0.120927 0.478973 0.0728526 0.597213C0.0247784 0.715452 2.76566e-05 0.842276 2.76566e-05 0.970366C2.76566e-05 1.09846 0.0247784 1.22528 0.0728526 1.34352C0.120927 1.46176 0.191373 1.56907 0.280127 1.65927L4.62652 6.10322Z" fill="#606060" fill-opacity="0.5"/>
</svg>
