<svg width="20" height="20" viewBox="0 0 20 20" fill="none" xmlns="http://www.w3.org/2000/svg">
<path d="M16.0609 13.4233C16.0963 13.4587 16.1246 13.501 16.1442 13.5477C16.1638 13.5944 16.1742 13.6446 16.1749 13.6955C16.1756 13.7463 16.1666 13.7968 16.1483 13.8441C16.13 13.8913 16.1028 13.9344 16.0684 13.9709C16.0339 14.0073 15.9928 14.0365 15.9474 14.0566C15.9019 14.0767 15.8531 14.0874 15.8037 14.0881C15.7542 14.0889 15.7051 14.0796 15.6592 14.0608C15.6132 14.042 15.5713 14.014 15.5359 13.9786L14.2533 12.6829C14.1191 12.5489 13.9385 12.4752 13.7515 12.4781C13.5644 12.481 13.3861 12.5602 13.2558 12.6983C13.1255 12.8364 13.0539 13.022 13.0567 13.2144C13.0595 13.4067 13.1365 13.5901 13.2708 13.7241C14.2458 14.7113 14.2908 14.7036 14.2908 14.9118V16.4544C14.2561 16.656 14.2763 16.8635 14.3491 17.0541C14.4219 17.2446 14.5445 17.4108 14.7033 17.5342C17.0209 18.9224 17.1034 18.961 17.1409 18.9996L19.0009 16.4621L18.7684 16.223C18.4083 15.8528 18.206 15.3506 18.2059 14.827V12.9991C18.1986 12.2136 17.9521 11.4502 17.5009 10.8164L15.4309 8.92676V12.7831L16.0609 13.4233Z" fill="#FB4156"/>
<path d="M5.31259 17.4879C5.46117 17.374 5.57624 17.2201 5.64506 17.0431C5.71389 16.8662 5.7338 16.6731 5.70259 16.4852V14.8964C5.70259 14.6882 5.70259 14.7036 6.72261 13.7087C6.79595 13.6335 6.8523 13.5427 6.88767 13.4427C6.92303 13.3427 6.93654 13.2358 6.92723 13.1298C6.91792 13.0238 6.88603 12.9212 6.83382 12.8293C6.7816 12.7374 6.71035 12.6584 6.62511 12.598C6.49153 12.5027 6.32947 12.4589 6.16755 12.4744C6.00563 12.4899 5.85424 12.5638 5.7401 12.6829L4.46507 13.9786C4.39346 14.0502 4.29713 14.0896 4.19726 14.0882C4.0974 14.0867 4.00218 14.0445 3.93256 13.9709C3.86294 13.8973 3.82462 13.7982 3.82602 13.6955C3.82743 13.5928 3.86845 13.4949 3.94006 13.4233L4.49507 12.8603V9.00391L2.50003 10.8164C2.05687 11.453 1.81825 12.2162 1.81752 12.9991V14.827C1.81744 15.3506 1.6151 15.8528 1.25501 16.223L1 16.4621L2.85254 18.9687C2.85254 18.9687 5.27509 17.511 5.31259 17.4879Z" fill="#FB4156"/>
<path d="M7.05363 11.9583C7.23435 12.0816 7.38581 12.2451 7.49683 12.4367C7.60784 12.6283 7.67557 12.8431 7.69501 13.0652C7.71445 13.2873 7.68511 13.5111 7.60914 13.72C7.53318 13.9289 7.41254 14.1176 7.25613 14.2721L6.46112 15.0434V16.1926H13.5638V15.0665L12.7687 14.2952C12.518 14.0225 12.3761 13.6627 12.3713 13.2874C12.3664 12.9121 12.4989 12.5486 12.7424 12.269C12.986 11.9895 13.3228 11.8142 13.6861 11.7781C14.0494 11.742 14.4126 11.8476 14.7038 12.074C14.7038 3.92163 14.7713 4.36125 14.5463 3.97562C14.4621 3.84964 14.3505 3.74566 14.2202 3.672C14.09 3.59834 13.9448 3.55705 13.7963 3.55142H11.8087C11.7225 3.11363 11.4916 2.71999 11.1553 2.43723C10.8191 2.15447 10.3981 2 9.96369 2C9.52931 2 9.1083 2.15447 8.77203 2.43723C8.43576 2.71999 8.20492 3.11363 8.11865 3.55142H6.18361C5.94257 3.55113 5.71068 3.64633 5.5361 3.81724C5.36152 3.98815 5.25766 4.22164 5.24609 4.46923V12.1048C5.48611 11.8724 5.7961 11.7311 6.12479 11.7045C6.45347 11.6778 6.78116 11.7674 7.05363 11.9583ZM12.1687 5.78811H12.8587C12.9326 5.78811 13.0058 5.80307 13.074 5.83214C13.1423 5.86121 13.2043 5.90382 13.2565 5.95753C13.3087 6.01125 13.3502 6.07501 13.3784 6.1452C13.4067 6.21538 13.4213 6.2906 13.4213 6.36656C13.4213 6.44252 13.4067 6.51774 13.3784 6.58792C13.3502 6.65811 13.3087 6.72187 13.2565 6.77559C13.2043 6.8293 13.1423 6.87191 13.074 6.90098C13.0058 6.93005 12.9326 6.94501 12.8587 6.94501H12.1687C12.0195 6.94501 11.8765 6.88407 11.771 6.77559C11.6655 6.66711 11.6062 6.51998 11.6062 6.36656C11.6062 6.21314 11.6655 6.06601 11.771 5.95753C11.8765 5.84905 12.0195 5.78811 12.1687 5.78811ZM12.1687 8.9966H12.8587C13.0079 8.9966 13.151 9.05754 13.2565 9.16602C13.362 9.2745 13.4213 9.42164 13.4213 9.57505C13.4213 9.72847 13.362 9.8756 13.2565 9.98408C13.151 10.0926 13.0079 10.1535 12.8587 10.1535H12.1687C12.0195 10.1535 11.8765 10.0926 11.771 9.98408C11.6655 9.8756 11.6062 9.72847 11.6062 9.57505C11.6062 9.42164 11.6655 9.2745 11.771 9.16602C11.8765 9.05754 12.0195 8.9966 12.1687 8.9966ZM7.10613 5.74954H9.51368C9.66287 5.74954 9.80594 5.81049 9.91143 5.91897C10.0169 6.02745 10.0762 6.17458 10.0762 6.328C10.0762 6.48141 10.0169 6.62854 9.91143 6.73703C9.80594 6.84551 9.66287 6.90645 9.51368 6.90645H7.10613C6.95694 6.90645 6.81387 6.84551 6.70838 6.73703C6.60288 6.62854 6.54362 6.48141 6.54362 6.328C6.54362 6.17458 6.60288 6.02745 6.70838 5.91897C6.81387 5.81049 6.95694 5.74954 7.10613 5.74954ZM7.10613 8.95803H9.51368C9.66287 8.95803 9.80594 9.01898 9.91143 9.12746C10.0169 9.23594 10.0762 9.38307 10.0762 9.53649C10.0762 9.6899 10.0169 9.83704 9.91143 9.94552C9.80594 10.054 9.66287 10.1149 9.51368 10.1149H7.10613C6.95694 10.1149 6.81387 10.054 6.70838 9.94552C6.60288 9.83704 6.54362 9.6899 6.54362 9.53649C6.54362 9.38307 6.60288 9.23594 6.70838 9.12746C6.81387 9.01898 6.95694 8.95803 7.10613 8.95803Z" fill="#FB4156"/>
</svg>
