<svg width="20" height="20" viewBox="0 0 20 20" fill="none" xmlns="http://www.w3.org/2000/svg">
<path d="M17 19L14.6993 17.5762C14.4971 17.4253 14.3395 17.2183 14.2444 16.9785C14.1493 16.7387 14.1206 16.4758 14.1614 16.2197V14.7374L13.3018 13.8383C13.1085 13.6363 13 13.3624 13 13.0768C13 12.7912 13.1085 12.5173 13.3018 12.3153C13.3491 12.265 13.4012 12.2198 13.4572 12.1805C13.6555 12.0426 13.8934 11.9807 14.1304 12.0053C14.3675 12.0298 14.5891 12.1394 14.7576 12.3153L15.9701 13.5832" stroke="#6F6F6F" stroke-width="1.2" stroke-linecap="round" stroke-linejoin="round"/>
<path d="M15 7L17.674 9.91865C18.072 10.6061 18.286 11.4297 18.2859 12.2745V14.2385C18.2859 14.8026 18.4677 15.3436 18.7912 15.7424L19 16" stroke="#6F6F6F" stroke-width="1.2" stroke-linecap="round" stroke-linejoin="round"/>
<path d="M4.02988 13.583L5.24241 12.3153C5.41092 12.1394 5.63251 12.0298 5.86955 12.0053C6.10659 11.9807 6.34446 12.0426 6.54277 12.1805C6.59882 12.2198 6.65091 12.265 6.69822 12.3153C6.89145 12.5172 7 12.7911 7 13.0767C7 13.3622 6.89145 13.6361 6.69822 13.8381L5.83857 14.7371V16.2192C5.87957 16.4754 5.85088 16.7384 5.75579 16.9783C5.66069 17.2183 5.50301 17.4255 5.3007 17.5763L3 19" stroke="#6F6F6F" stroke-width="1.2" stroke-linecap="round" stroke-linejoin="round"/>
<path d="M1 16L1.20884 15.7425C1.5323 15.3437 1.71406 14.8028 1.71413 14.2387V12.2739C1.71402 11.4293 1.92796 10.6057 2.32603 9.91836L5 7" stroke="#6F6F6F" stroke-width="1.2" stroke-linecap="round" stroke-linejoin="round"/>
<path d="M15 12V4.35083C15 4.18079 14.9313 4.01771 14.809 3.89748C14.6867 3.77724 14.5208 3.70969 14.3478 3.70969H11.7391C11.7391 3.25625 11.5559 2.82139 11.2298 2.50076C10.9036 2.18013 10.4612 2 10 2C9.53875 2 9.0964 2.18013 8.77025 2.50076C8.4441 2.82139 8.26087 3.25625 8.26087 3.70969H5.65217C5.47921 3.70969 5.31332 3.77724 5.19102 3.89748C5.06871 4.01771 5 4.18079 5 4.35083V11.6128" stroke="#6F6F6F" stroke-width="1.2" stroke-linecap="round" stroke-linejoin="round"/>
<path d="M6 16H14" stroke="#6F6F6F" stroke-width="1.2" stroke-linecap="round" stroke-linejoin="round"/>
<path d="M8 6H10" stroke="#6F6F6F" stroke-width="1.2" stroke-linecap="round" stroke-linejoin="round"/>
<path d="M8 9H12" stroke="#6F6F6F" stroke-width="1.2" stroke-linecap="round" stroke-linejoin="round"/>
</svg>
