<svg width="16" height="16" viewBox="0 0 16 16" fill="none" xmlns="http://www.w3.org/2000/svg">
<path d="M5.33325 1.33398V3.33398" stroke="#085F1C" stroke-miterlimit="10" stroke-linecap="round" stroke-linejoin="round"/>
<path d="M10.6667 1.33398V3.33398" stroke="#085F1C" stroke-miterlimit="10" stroke-linecap="round" stroke-linejoin="round"/>
<path d="M2.33325 6.06055H13.6666" stroke="#085F1C" stroke-miterlimit="10" stroke-linecap="round" stroke-linejoin="round"/>
<path d="M14.6666 12.6667C14.6666 13.1667 14.5266 13.64 14.2799 14.04C13.8199 14.8133 12.9733 15.3333 11.9999 15.3333C11.3266 15.3333 10.7133 15.0867 10.2466 14.6667C10.0399 14.4933 9.85992 14.28 9.71992 14.04C9.47325 13.64 9.33325 13.1667 9.33325 12.6667C9.33325 11.1933 10.5266 10 11.9999 10C12.7999 10 13.5133 10.3533 13.9999 10.9067C14.4133 11.38 14.6666 11.9933 14.6666 12.6667Z" stroke="#085F1C" stroke-miterlimit="10" stroke-linecap="round" stroke-linejoin="round"/>
<path d="M10.96 12.667L11.62 13.327L13.04 12.0137" stroke="#085F1C" stroke-linecap="round" stroke-linejoin="round"/>
<path d="M14 5.66732V10.9073C13.5133 10.354 12.8 10.0007 12 10.0007C10.5267 10.0007 9.33333 11.194 9.33333 12.6673C9.33333 13.1673 9.47333 13.6406 9.72 14.0406C9.86 14.2806 10.04 14.494 10.2467 14.6673H5.33333C3 14.6673 2 13.334 2 11.334V5.66732C2 3.66732 3 2.33398 5.33333 2.33398H10.6667C13 2.33398 14 3.66732 14 5.66732Z" stroke="#085F1C" stroke-miterlimit="10" stroke-linecap="round" stroke-linejoin="round"/>
<path d="M7.99691 9.13216H8.0029" stroke="#085F1C" stroke-linecap="round" stroke-linejoin="round"/>
<path d="M5.52962 9.13216H5.53561" stroke="#085F1C" stroke-linecap="round" stroke-linejoin="round"/>
<path d="M5.52962 11.1322H5.53561" stroke="#085F1C" stroke-linecap="round" stroke-linejoin="round"/>
</svg>
