<svg width="20" height="20" viewBox="0 0 20 20" fill="none" xmlns="http://www.w3.org/2000/svg">
<g clip-path="url(#clip0_2925_69220)">
<path d="M16.9436 6.80801L11.792 2.61601C10.7852 1.80001 9.21221 1.79201 8.21335 2.60801L3.0617 6.80801C2.32238 7.40801 1.87407 8.60801 2.03137 9.55201L3.02237 15.584C3.25046 16.936 4.48528 18 5.83022 18H14.1672C15.4964 18 16.7549 16.912 16.9829 15.576L17.9739 9.54401C18.1155 8.60801 17.6672 7.40801 16.9436 6.80801ZM10.5886 14.8C10.5886 15.128 10.3212 15.4 9.99873 15.4C9.67626 15.4 9.40884 15.128 9.40884 14.8V12.4C9.40884 12.072 9.67626 11.8 9.99873 11.8C10.3212 11.8 10.5886 12.072 10.5886 12.4V14.8Z" fill="#FB4156"/>
</g>
<defs>
<clipPath id="clip0_2925_69220">
<rect width="20" height="20" fill="white"/>
</clipPath>
</defs>
</svg>
