<svg width="20" height="20" viewBox="0 0 20 20" fill="none" xmlns="http://www.w3.org/2000/svg">
<path d="M12.3468 6.25C12.3468 3.90612 10.4907 2 8.20838 2C5.92602 2 4.06992 3.90612 4.06992 6.25C4.06992 8.59387 5.92602 10.5 8.20838 10.5C10.4907 10.5 12.3468 8.59387 12.3468 6.25ZM8.20838 9.08333C6.68681 9.08333 5.44941 7.81258 5.44941 6.25C5.44941 4.68742 6.68681 3.41667 8.20838 3.41667C9.72996 3.41667 10.9674 4.68742 10.9674 6.25C10.9674 7.81258 9.72996 9.08333 8.20838 9.08333ZM8.20287 12.5811C8.24977 12.9692 7.98215 13.3227 7.60348 13.3716C5.19558 13.6804 3.37949 15.7948 3.37949 18.2917C3.37949 18.6827 3.07048 19 2.68974 19C2.30901 19 2 18.6827 2 18.2917C2 15.0822 4.33547 12.3629 7.43242 11.9662C7.80626 11.9174 8.15458 12.1929 8.20218 12.5818L8.20287 12.5811ZM17.6551 15.5525L16.9833 15.1545C17.0978 14.8024 17.1751 14.4327 17.1751 14.041C17.1751 13.6493 17.0985 13.2795 16.9833 12.9275L17.6551 12.5294C17.9848 12.3339 18.0979 11.9004 17.9076 11.5618C17.7165 11.2225 17.2958 11.1056 16.9654 11.3025L16.2942 11.7006C15.808 11.1382 15.1603 10.7267 14.4161 10.5715V9.79167C14.4161 9.40067 14.1071 9.08333 13.7263 9.08333C13.3456 9.08333 13.0366 9.40067 13.0366 9.79167V10.5715C12.2924 10.7274 11.6447 11.1389 11.1584 11.7006L10.4873 11.3025C10.1562 11.1063 9.73548 11.2225 9.54511 11.5618C9.35474 11.9011 9.46786 12.3339 9.79755 12.5294L10.4694 12.9275C10.3549 13.2795 10.2776 13.6493 10.2776 14.041C10.2776 14.4327 10.3542 14.8024 10.4694 15.1545L9.79755 15.5525C9.46786 15.748 9.35474 16.1815 9.54511 16.5201C9.6734 16.7475 9.90446 16.8743 10.1431 16.8743C10.2597 16.8743 10.3783 16.8438 10.4873 16.7794L11.1584 16.3813C11.6447 16.9437 12.2924 17.3552 13.0366 17.5104V18.2902C13.0366 18.6812 13.3456 18.9986 13.7263 18.9986C14.1071 18.9986 14.4161 18.6812 14.4161 18.2902V17.5104C15.1603 17.3545 15.808 16.943 16.2942 16.3813L16.9654 16.7794C17.0743 16.8438 17.193 16.8743 17.3096 16.8743C17.5482 16.8743 17.78 16.7475 17.9076 16.5201C18.0979 16.1808 17.9848 15.748 17.6551 15.5525ZM13.7263 16.166C12.5855 16.166 11.6571 15.2125 11.6571 14.041C11.6571 12.8694 12.5855 11.916 13.7263 11.916C14.8672 11.916 15.7956 12.8694 15.7956 14.041C15.7956 15.2125 14.8672 16.166 13.7263 16.166Z" fill="#6F6F6F"/>
</svg>
