<svg width="18" height="18" viewBox="0 0 18 18" fill="none" xmlns="http://www.w3.org/2000/svg">
<g clip-path="url(#clip0_2925_69307)">
<path d="M6.75 9C4.26825 9 2.25 6.98175 2.25 4.5C2.25 2.01825 4.26825 0 6.75 0C9.23175 0 11.25 2.01825 11.25 4.5C11.25 6.98175 9.23175 9 6.75 9ZM17.022 14.3505L16.2915 13.929C16.416 13.5563 16.5 13.1648 16.5 12.75C16.5 12.3352 16.4168 11.9438 16.2915 11.571L17.022 11.1495C17.3805 10.9425 17.5035 10.4835 17.2965 10.125C17.0888 9.76575 16.6313 9.642 16.272 9.8505L15.5423 10.272C15.0135 9.6765 14.3093 9.24075 13.5 9.0765V8.25075C13.5 7.83675 13.164 7.50075 12.75 7.50075C12.336 7.50075 12 7.83675 12 8.25075V9.0765C11.1908 9.2415 10.4865 9.67725 9.95775 10.272L9.228 9.8505C8.868 9.64275 8.4105 9.76575 8.2035 10.125C7.9965 10.4843 8.1195 10.9425 8.478 11.1495L9.2085 11.571C9.084 11.9438 9 12.3352 9 12.75C9 13.1648 9.08325 13.5563 9.2085 13.929L8.478 14.3505C8.1195 14.5575 7.9965 15.0165 8.2035 15.375C8.343 15.6158 8.59425 15.75 8.85375 15.75C8.9805 15.75 9.1095 15.7177 9.228 15.6495L9.95775 15.228C10.4865 15.8235 11.1908 16.2593 12 16.4235V17.2493C12 17.6632 12.336 17.9993 12.75 17.9993C13.164 17.9993 13.5 17.6632 13.5 17.2493V16.4235C14.3093 16.2585 15.0135 15.8228 15.5423 15.228L16.272 15.6495C16.3905 15.7177 16.5195 15.75 16.6463 15.75C16.9058 15.75 17.1578 15.6158 17.2965 15.375C17.5035 15.0157 17.3805 14.5575 17.022 14.3505ZM12.75 13.875C12.1298 13.875 11.625 13.3702 11.625 12.75C11.625 12.1298 12.1298 11.625 12.75 11.625C13.3703 11.625 13.875 12.1298 13.875 12.75C13.875 13.3702 13.3703 13.875 12.75 13.875ZM6 12.75C6 11.967 6.14025 11.2177 6.3855 10.5187C2.8335 10.7092 0 13.6515 0 17.25C0 17.664 0.336 18 0.75 18H8.51175C6.981 16.7625 6 14.8717 6 12.75Z" fill="#FB4156"/>
</g>
<defs>
<clipPath id="clip0_2925_69307">
<rect width="18" height="18" fill="white"/>
</clipPath>
</defs>
</svg>
