<svg width="20" height="20" viewBox="0 0 20 20" fill="none" xmlns="http://www.w3.org/2000/svg">
<path d="M10 10C10.7911 10 11.5645 9.7654 12.2223 9.32588C12.8801 8.88635 13.3928 8.26164 13.6955 7.53073C13.9983 6.79983 14.0775 5.99556 13.9231 5.21964C13.7688 4.44372 13.3878 3.73098 12.8284 3.17157C12.269 2.61216 11.5563 2.2312 10.7804 2.07686C10.0044 1.92252 9.20017 2.00173 8.46927 2.30448C7.73836 2.60723 7.11365 3.11992 6.67412 3.77772C6.2346 4.43552 6 5.20888 6 6C6.00106 7.06054 6.42283 8.07734 7.17274 8.82726C7.92266 9.57717 8.93946 9.99894 10 10ZM10 3.33333C10.5274 3.33333 11.043 3.48973 11.4815 3.78275C11.92 4.07577 12.2618 4.49224 12.4637 4.97951C12.6655 5.46678 12.7183 6.00296 12.6154 6.52024C12.5125 7.03752 12.2586 7.51268 11.8856 7.88562C11.5127 8.25856 11.0375 8.51253 10.5202 8.61543C10.003 8.71832 9.46678 8.66551 8.97951 8.46368C8.49224 8.26185 8.07576 7.92005 7.78275 7.48152C7.48973 7.04299 7.33333 6.52742 7.33333 6C7.33333 5.29276 7.61428 4.61448 8.11438 4.11438C8.61448 3.61429 9.29276 3.33333 10 3.33333Z" fill="#6F6F6F"/>
<path d="M10 11C8.14412 11.0021 6.36483 11.7614 5.05253 13.1112C3.74022 14.461 3.00206 16.2911 3 18.2C3 18.4122 3.08194 18.6157 3.22781 18.7657C3.37367 18.9157 3.5715 19 3.77778 19C3.98406 19 4.18189 18.9157 4.32775 18.7657C4.47361 18.6157 4.55556 18.4122 4.55556 18.2C4.55556 16.7148 5.12916 15.2904 6.1502 14.2402C7.17123 13.19 8.55604 12.6 10 12.6C11.444 12.6 12.8288 13.19 13.8498 14.2402C14.8708 15.2904 15.4444 16.7148 15.4444 18.2C15.4444 18.4122 15.5264 18.6157 15.6722 18.7657C15.8181 18.9157 16.0159 19 16.2222 19C16.4285 19 16.6263 18.9157 16.7722 18.7657C16.9181 18.6157 17 18.4122 17 18.2C16.9979 16.2911 16.2598 14.461 14.9475 13.1112C13.6352 11.7614 11.8559 11.0021 10 11Z" fill="#6F6F6F"/>
</svg>
