<svg width="60" height="60" viewBox="0 0 60 60" fill="none" xmlns="http://www.w3.org/2000/svg">
<g clip-path="url(#clip0_4014_14285)">
<path opacity="0.4" d="M30 55.0254C43.8071 55.0254 55 43.8325 55 30.0254C55 16.2183 43.8071 5.02539 30 5.02539C16.1929 5.02539 5 16.2183 5 30.0254C5 43.8325 16.1929 55.0254 30 55.0254Z" fill="#606060"/>
<path d="M30 17.3496C24.825 17.3496 20.625 21.5496 20.625 26.7246C20.625 31.7996 24.6 35.9246 29.875 36.0746C29.95 36.0746 30.05 36.0746 30.1 36.0746C30.15 36.0746 30.225 36.0746 30.275 36.0746C30.3 36.0746 30.325 36.0746 30.325 36.0746C35.375 35.8996 39.35 31.7996 39.375 26.7246C39.375 21.5496 35.175 17.3496 30 17.3496Z" fill="white"/>
<path d="M46.95 48.3996C42.5 52.4996 36.55 55.0246 30 55.0246C23.45 55.0246 17.5 52.4996 13.05 48.3996C13.65 46.1246 15.275 44.0496 17.65 42.4496C24.475 37.8996 35.575 37.8996 42.35 42.4496C44.75 44.0496 46.35 46.1246 46.95 48.3996Z" fill="white"/>
</g>
<defs>
<clipPath id="clip0_4014_14285">
<rect width="60" height="60" fill="white"/>
</clipPath>
</defs>
</svg>
