<svg width="16" height="16" viewBox="0 0 16 16" fill="none" xmlns="http://www.w3.org/2000/svg">
<g clip-path="url(#clip0_3391_7795)">
<path d="M15.5131 6.27932C14.4791 4.59532 12.1271 1.76999 7.99906 1.76999C3.87106 1.76999 1.51906 4.59532 0.485058 6.27932C0.16541 6.79633 -0.00390625 7.39215 -0.00390625 7.99999C-0.00390625 8.60783 0.16541 9.20365 0.485058 9.72066C1.51906 11.4047 3.87106 14.23 7.99906 14.23C12.1271 14.23 14.4791 11.4047 15.5131 9.72066C15.8327 9.20365 16.002 8.60783 16.002 7.99999C16.002 7.39215 15.8327 6.79633 15.5131 6.27932ZM14.3764 9.02266C13.4884 10.4667 11.4784 12.8967 7.99906 12.8967C4.51972 12.8967 2.50972 10.4667 1.62172 9.02266C1.43181 8.71535 1.33122 8.36124 1.33122 7.99999C1.33122 7.63874 1.43181 7.28463 1.62172 6.97732C2.50972 5.53332 4.51972 3.10332 7.99906 3.10332C11.4784 3.10332 13.4884 5.53066 14.3764 6.97732C14.5663 7.28463 14.6669 7.63874 14.6669 7.99999C14.6669 8.36124 14.5663 8.71535 14.3764 9.02266Z" fill="#ACB5BB"/>
<path d="M7.99935 4.66666C7.34008 4.66666 6.69561 4.86215 6.14745 5.22842C5.59929 5.5947 5.17204 6.11529 4.91975 6.72438C4.66746 7.33347 4.60145 8.00369 4.73007 8.65029C4.85868 9.29689 5.17615 9.89084 5.64233 10.357C6.1085 10.8232 6.70245 11.1407 7.34905 11.2693C7.99565 11.3979 8.66587 11.3319 9.27496 11.0796C9.88405 10.8273 10.4046 10.4001 10.7709 9.85189C11.1372 9.30373 11.3327 8.65926 11.3327 7.99999C11.3316 7.11626 10.9801 6.26903 10.3552 5.64414C9.73031 5.01924 8.88308 4.66772 7.99935 4.66666ZM7.99935 9.99999C7.60379 9.99999 7.21711 9.88269 6.88821 9.66293C6.55931 9.44317 6.30297 9.13081 6.15159 8.76536C6.00022 8.3999 5.96061 7.99777 6.03778 7.60981C6.11495 7.22185 6.30543 6.86548 6.58514 6.58578C6.86484 6.30607 7.22121 6.11559 7.60917 6.03842C7.99713 5.96125 8.39927 6.00086 8.76472 6.15223C9.13017 6.30361 9.44253 6.55995 9.66229 6.88885C9.88205 7.21775 9.99935 7.60443 9.99935 7.99999C9.99935 8.53042 9.78864 9.03913 9.41356 9.4142C9.03849 9.78928 8.52978 9.99999 7.99935 9.99999Z" fill="#ACB5BB"/>
</g>
<defs>
<clipPath id="clip0_3391_7795">
<rect width="16" height="16" fill="white"/>
</clipPath>
</defs>
</svg>
