<svg width="17" height="16" viewBox="0 0 17 16" fill="none" xmlns="http://www.w3.org/2000/svg">
<path d="M16.0131 6.27923C15.4112 5.29372 14.6521 4.4134 13.7657 3.67323L15.6324 1.80657C15.7538 1.68083 15.821 1.51243 15.8195 1.33763C15.818 1.16283 15.7479 0.995625 15.6243 0.87202C15.5007 0.748415 15.3335 0.678302 15.1587 0.676783C14.9839 0.675264 14.8155 0.74246 14.6897 0.863899L12.6597 2.89657C11.4013 2.14911 9.96267 1.75954 8.49906 1.7699C4.37172 1.7699 2.01972 4.59523 0.985058 6.27923C0.66541 6.79624 0.496094 7.39206 0.496094 7.9999C0.496094 8.60774 0.66541 9.20356 0.985058 9.72057C1.5869 10.7061 2.34605 11.5864 3.23239 12.3266L1.36572 14.1932C1.30205 14.2547 1.25126 14.3283 1.21632 14.4096C1.18138 14.491 1.16299 14.5784 1.16222 14.667C1.16145 14.7555 1.17832 14.8433 1.21184 14.9252C1.24536 15.0071 1.29487 15.0816 1.35746 15.1442C1.42006 15.2068 1.49449 15.2563 1.57642 15.2898C1.65835 15.3233 1.74614 15.3402 1.83466 15.3394C1.92318 15.3386 2.01066 15.3202 2.09199 15.2853C2.17333 15.2504 2.24689 15.1996 2.30839 15.1359L4.34306 13.1012C5.5999 13.8486 7.03684 14.2388 8.49906 14.2299C12.6264 14.2299 14.9784 11.4046 16.0131 9.72057C16.3327 9.20356 16.502 8.60774 16.502 7.9999C16.502 7.39206 16.3327 6.79624 16.0131 6.27923ZM2.12106 9.02257C1.93115 8.71526 1.83056 8.36115 1.83056 7.9999C1.83056 7.63865 1.93115 7.28454 2.12106 6.97723C3.01039 5.53323 5.02039 3.10323 8.49906 3.10323C9.60591 3.09703 10.6972 3.36379 11.6764 3.8799L10.3344 5.2219C9.69435 4.79697 8.927 4.60656 8.16255 4.683C7.3981 4.75943 6.68364 5.09799 6.14039 5.64123C5.59715 6.18448 5.25859 6.89894 5.18215 7.66339C5.10572 8.42784 5.29613 9.19519 5.72106 9.83523L4.18106 11.3752C3.36446 10.715 2.66762 9.9192 2.12106 9.02257ZM10.4991 7.9999C10.4991 8.53033 10.2883 9.03904 9.91327 9.41411C9.5382 9.78919 9.02949 9.9999 8.49906 9.9999C8.20207 9.99875 7.90919 9.93037 7.64239 9.7999L10.2991 7.14323C10.4295 7.41003 10.4979 7.70291 10.4991 7.9999ZM6.49906 7.9999C6.49906 7.46947 6.70977 6.96076 7.08484 6.58569C7.45992 6.21061 7.96863 5.9999 8.49906 5.9999C8.79605 6.00105 9.08893 6.06943 9.35572 6.1999L6.69906 8.85657C6.56858 8.58977 6.50021 8.29689 6.49906 7.9999ZM14.8771 9.02257C13.9877 10.4666 11.9777 12.8966 8.49906 12.8966C7.39221 12.9028 6.3009 12.636 5.32172 12.1199L6.66372 10.7779C7.30377 11.2028 8.07112 11.3932 8.83557 11.3168C9.60002 11.2404 10.3145 10.9018 10.8577 10.3586C11.401 9.81532 11.7395 9.10086 11.816 8.33641C11.8924 7.57196 11.702 6.80461 11.2771 6.16457L12.8171 4.62457C13.6337 5.28475 14.3305 6.0806 14.8771 6.97723C15.067 7.28454 15.1676 7.63865 15.1676 7.9999C15.1676 8.36115 15.067 8.71526 14.8771 9.02257Z" fill="#ACB5BB"/>
</svg>
