<svg width="45" height="44" viewBox="0 0 45 44" fill="none" xmlns="http://www.w3.org/2000/svg">
<rect width="43.5981" height="44" rx="21.7991" transform="matrix(-1 0 0 1 44.0181 6.10352e-05)" fill="white"/>
<path d="M16.2739 21.9956C16.2739 22.3607 16.4016 22.6634 16.6827 22.9483L23.2412 29.6528C23.4541 29.8843 23.7267 30.0001 24.0418 30.0001C24.6806 30.0001 25.1917 29.4658 25.1917 28.7981C25.1917 28.4597 25.0639 28.1659 24.8339 27.9255L19.008 21.9867L24.8339 16.0657C25.0639 15.8253 25.1917 15.5226 25.1917 15.1932C25.1917 14.5254 24.6806 14.0001 24.0418 14.0001C23.7181 14.0001 23.4541 14.1069 23.2412 14.3384L16.6827 21.0429C16.4016 21.3278 16.2824 21.6306 16.2739 21.9956Z" fill="#FB4156"/>
</svg>
